<?xml version="1.0" encoding="utf-8"?>
<!-- Generator: Adobe Illustrator 13.0.0, SVG Export Plug-In . SVG Version: 6.00 Build 14948)  -->
<!DOCTYPE svg PUBLIC "-//W3C//DTD SVG 1.1//EN" "http://www.w3.org/Graphics/SVG/1.1/DTD/svg11.dtd">
<svg version="1.1" id="Layer_2" xmlns="http://www.w3.org/2000/svg" xmlns:xlink="http://www.w3.org/1999/xlink" x="0px" y="0px"
	 width="498.16px" height="177.852px" viewBox="0 0 498.16 177.852" enable-background="new 0 0 498.16 177.852"
	 xml:space="preserve">
<path d="M288.466,109.863c-1.11,7.753-2.92,13.689-5.428,17.802c-4.504,7.386-10.866,11.077-19.087,11.077
	c-7.995,0-14.315-3.771-18.959-11.311c-4.645-7.539-6.968-19.938-6.968-37.192c0-17.41,2.336-29.887,7.01-37.428
	c4.672-7.539,10.866-11.31,18.581-11.31c8.051,0,14.427,3.713,19.129,11.135c2.762,4.361,4.705,10.229,5.845,17.581h38.528
	c-2.005-18.841-7.259-34.116-15.785-45.796C300.183,9.147,284.305,1.51,263.699,1.51c-20.101,0-35.782,7.774-47.042,23.319
	c-11.262,15.547-16.891,37.271-16.891,65.176c0,19.978,2.843,36.61,8.53,49.902c5.686,13.291,13.104,23.009,22.254,29.146
	c9.149,6.144,20.706,9.212,34.669,9.212c13.737,0,25.209-3.557,34.415-10.669c9.205-7.11,16.244-17.061,21.114-29.848
	c3.016-7.917,5.095-17.215,6.243-27.888L288.466,109.863L288.466,109.863z"/>
<path d="M0,1.251h35.176L81.08,98.955V1.251h35.509v176.601H81.08L35.426,80.886v96.966H0V1.251z"/>
<path d="M143.116,1.251h37.754v176.601h-37.754V1.251z"/>
<path d="M340.284,1.251h100.955v37.705h-63.201v28.067h58.627v36.02h-58.627v34.813h65.03v39.994H340.284V1.251z"/>
<rect x="102.809" y="68.92" fill="#0067AD" width="40.121" height="40.121"/>
<rect x="181.002" y="68.92" fill="#0067AD" width="40.121" height="40.121"/>
<rect x="326.378" y="68.92" fill="#0067AD" width="40.121" height="40.121"/>
<g>
	<path d="M466.357,35.333V13.858h9.126c2.295,0,3.962,0.193,5.003,0.579c1.039,0.387,1.872,1.072,2.497,2.059
		c0.625,0.985,0.938,2.113,0.938,3.384c0,1.611-0.474,2.942-1.421,3.992s-2.363,1.711-4.248,1.984
		c0.938,0.547,1.711,1.147,2.322,1.803c0.608,0.653,1.433,1.815,2.468,3.485l2.622,4.189h-5.186l-3.136-4.673
		c-1.112-1.67-1.875-2.723-2.285-3.157c-0.409-0.436-0.845-0.732-1.304-0.895c-0.459-0.161-1.187-0.241-2.183-0.241h-0.879v8.965
		L466.357,35.333L466.357,35.333z M470.693,22.94h3.208c2.079,0,3.379-0.088,3.896-0.264c0.518-0.176,0.923-0.479,1.216-0.908
		c0.293-0.429,0.439-0.967,0.439-1.61c0-0.724-0.193-1.307-0.578-1.75c-0.387-0.444-0.931-0.726-1.634-0.843
		c-0.353-0.049-1.406-0.072-3.164-0.072h-3.384L470.693,22.94L470.693,22.94z"/>
</g>
<ellipse fill="none" stroke="#000000" stroke-width="5" cx="475.243" cy="24.625" rx="20.417" ry="20.375"/>
</svg>
